<?xml version="1.0" encoding="iso-8859-1"?>
<!-- Generator: Adobe Illustrator 16.0.0, SVG Export Plug-In . SVG Version: 6.00 Build 0)  -->
<!DOCTYPE svg PUBLIC "-//W3C//DTD SVG 1.1//EN" "http://www.w3.org/Graphics/SVG/1.1/DTD/svg11.dtd">
<svg version="1.1" id="Capa_1" xmlns="http://www.w3.org/2000/svg" xmlns:xlink="http://www.w3.org/1999/xlink" x="0px" y="0px"
	 width="580.113px" height="580.113px" viewBox="0 0 580.113 580.113" style="enable-background:new 0 0 580.113 580.113;"
	 xml:space="preserve">
<g>
	<g>
		<path d="M99.369,389.222c39.786-32.662,52.853-61.169,162.125-61.169c12.748,0,24.131,0.403,34.456,1.138
			c19.938-62.528,78.562-107.945,147.614-107.945c25.648,0,49.835,6.304,71.163,17.381c-11.646-59.878-32.858-109.56-45.38-130.307
			c-19.896-32.956-92.938-54.633-116.696-30.881s-91.157,21.389-91.157,21.389s-67.406,2.375-91.157-21.377
			c-23.752-23.751-96.8-2.081-116.696,30.881C33.75,141.289-8.116,247.293,1.382,351.217
			C10.886,455.147,59.583,421.884,99.369,389.222z"/>
		<path d="M518.688,262.146c-21.555-14.229-47.363-22.534-75.123-22.534c-59.603,0-110.252,38.201-128.888,91.439
			c-4.944,14.125-7.662,29.297-7.662,45.111c0,75.416,61.139,136.549,136.55,136.549c75.417,0,136.549-61.139,136.549-136.549
			C580.113,328.505,555.688,286.577,518.688,262.146z M413.625,430.22c-8.427,8.127-18.917,12.191-31.469,12.191
			c-11.892,0-21.757-3.422-29.584-10.264c-6.353-5.551-10.545-12.497-12.564-20.82c-0.796-3.286,1.658-6.358,5.019-6.763
			l12.233-1.48c3.354-0.41,6.316,2.013,7.368,5.232c1.103,3.384,2.767,6.145,4.982,8.286c3.408,3.286,7.527,4.933,12.368,4.933
			c5.202,0,9.578-1.971,13.134-5.918s5.337-9.266,5.337-15.955c0-6.334-1.702-11.353-5.11-15.061
			c-3.409-3.709-7.559-5.558-12.461-5.558c-1.763,0-3.708,0.19-5.845,0.563c-3.194,0.557-5.349-1.396-4.896-4.743l1.139-8.402
			c0.452-3.348,3.58-5.894,6.921-6.408c2.54-0.392,4.651-1.224,6.567-2.265c1.028-0.557,2.087-1.089,2.932-1.829
			c3.586-3.14,5.379-7.308,5.379-12.504c0-4.425-1.315-7.949-3.947-10.581s-6.126-3.947-10.489-3.947
			c-2.148,0-4.138,0.373-5.974,1.113c-3.127,1.268-7.099,5.301-8.507,8.372c-0.306,0.668-0.581,1.371-0.826,2.105
			c-0.44,1.31-1.236,2.394-2.19,3.269c-1.384,1.272-3.146,2.014-5.117,1.683l-11.15-1.897c-3.329-0.562-5.526-3.721-4.59-6.971
			c0.019-0.061,0.043-0.104,0.062-0.165c1.499-5.159,3.427-9.479,5.802-12.938c3.256-4.749,7.797-8.488,13.629-11.206
			c5.832-2.717,12.356-4.082,19.59-4.082c12.369,0,22.296,3.948,29.762,11.837c6.157,6.456,9.235,13.745,9.235,21.872
			c0,9.823-4.571,17.956-13.715,24.395c-2.76,1.946-2.484,3.728,0.648,4.994c4.865,1.971,8.941,4.994,12.216,9.07
			c2.344,2.913,4.045,6.162,5.171,9.706c1.041,3.286,1.598,6.823,1.598,10.643C426.263,412.258,422.053,422.093,413.625,430.22z
			 M548.186,349.179c0,8.066-1.463,14.854-4.395,20.349c-2.931,5.496-6.646,9.816-11.162,12.956s-9.101,5.215-13.765,6.23
			c-1.229,0.245-2.655,0.44-4.1,0.637c-5.992,0.813-13.74,1.242-23.422,1.242h-11.181c-3.379,0-6.12,2.741-6.12,6.12v23.543v13.795
			c0,3.378-2.742,6.12-6.12,6.12h-14.297c-3.378,0-6.119-2.742-6.119-6.12v-26.714v-92.473c0-3.379,2.741-6.12,6.119-6.12h36.464
			c16.138,0,26.652,0.654,31.555,1.971c0.416,0.109,0.808,0.275,1.218,0.397c5.116,1.542,9.676,4.144,13.616,7.907
			c2.448,2.331,5.809,6.72,7.345,9.73C546.735,334.46,548.186,341.266,548.186,349.179z"/>
		<path d="M505.964,331.872c-3.17-0.6-9.535-0.894-19.095-0.894h-6.701c-3.378,0-6.12,2.742-6.12,6.12v25.056
			c0,3.378,2.742,6.12,6.12,6.12h8.402c10.459,0,17.454-0.686,20.979-2.062c1.732-0.674,3.28-1.536,4.646-2.589
			c2.338-1.8,5.11-5.863,5.937-8.739c0.477-1.671,0.716-3.452,0.716-5.35c0-4.779-1.401-8.727-4.211-11.836
			C513.828,334.589,510.266,332.649,505.964,331.872z"/>
	</g>
</g>
<g>
</g>
<g>
</g>
<g>
</g>
<g>
</g>
<g>
</g>
<g>
</g>
<g>
</g>
<g>
</g>
<g>
</g>
<g>
</g>
<g>
</g>
<g>
</g>
<g>
</g>
<g>
</g>
<g>
</g>
</svg>
