<?xml version="1.0" encoding="iso-8859-1"?>
<!-- Generator: Adobe Illustrator 16.0.0, SVG Export Plug-In . SVG Version: 6.00 Build 0)  -->
<!DOCTYPE svg PUBLIC "-//W3C//DTD SVG 1.1//EN" "http://www.w3.org/Graphics/SVG/1.1/DTD/svg11.dtd">
<svg version="1.1" id="Capa_1" xmlns="http://www.w3.org/2000/svg" xmlns:xlink="http://www.w3.org/1999/xlink" x="0px" y="0px"
	 width="580.113px" height="580.113px" viewBox="0 0 580.113 580.113" style="enable-background:new 0 0 580.113 580.113;"
	 xml:space="preserve">
<g>
	<g>
		<path d="M99.369,389.222c39.786-32.662,52.853-61.17,162.125-61.17c12.748,0,24.137,0.404,34.456,1.139
			c19.938-62.528,78.562-107.944,147.614-107.944c25.648,0,49.835,6.304,71.163,17.381c-11.646-59.878-32.858-109.561-45.38-130.307
			c-19.896-32.956-92.938-54.633-116.696-30.882c-23.752,23.764-91.157,21.384-91.157,21.384s-67.406,2.375-91.157-21.377
			c-23.752-23.751-96.8-2.081-116.696,30.881C33.75,141.288-8.116,247.292,1.382,351.216
			C10.886,455.14,59.583,421.884,99.369,389.222z"/>
		<path d="M518.688,262.146c-21.555-14.229-47.363-22.534-75.123-22.534c-59.603,0-110.252,38.201-128.888,91.439
			c-4.944,14.125-7.662,29.295-7.662,45.109c0,75.418,61.139,136.551,136.55,136.551c75.416,0,136.549-61.141,136.549-136.551
			C580.113,328.505,555.688,286.571,518.688,262.146z M431.686,409.571c0,3.377-2.742,6.119-6.12,6.119h-4.076
			c-3.378,0-6.12,2.742-6.12,6.121v14.203c0,3.379-2.741,6.121-6.12,6.121h-12.142c-3.379,0-6.12-2.742-6.12-6.121v-14.203
			c0-3.379-2.742-6.121-6.12-6.121h-41.549c-3.378,0-6.12-2.742-6.12-6.119v-9.811c0-3.379,1.549-8.385,3.452-11.176l28.593-41.854
			l21.518-31.5c1.909-2.791,6.193-5.057,9.571-5.057h8.917c3.379,0,6.12,2.742,6.12,6.121v65.918v5.215
			c0,3.379,2.742,6.119,6.12,6.119h4.076c3.378,0,6.12,2.742,6.12,6.121V409.571z M545.572,330.72
			c2.907,5.705,4.357,12.516,4.357,20.424c0,8.066-1.463,14.854-4.395,20.348c-2.931,5.496-6.646,9.816-11.162,12.957
			c-4.517,3.139-9.101,5.215-13.765,6.23c-1.909,0.379-4.161,0.68-6.578,0.941c-5.625,0.613-12.547,0.938-20.943,0.938h-11.181
			c-3.379,0-6.12,2.74-6.12,6.119v21.959v15.373c0,3.379-2.742,6.121-6.12,6.121h-14.29c-3.379,0-6.12-2.742-6.12-6.121V408.47
			v-91.635c0-3.379,2.741-6.121,6.12-6.121h36.463c15.667,0,25.991,0.625,31.064,1.867c0.153,0.037,0.35,0.066,0.49,0.109
			c5.63,1.475,10.575,4.242,14.835,8.305C540.677,323.327,544.042,327.71,545.572,330.72z"/>
		<path d="M387.572,353.714l-2.1,3.127l-21.279,31.635c-1.885,2.803-0.673,5.078,2.705,5.078h17.975c3.379,0,6.12-2.74,6.12-6.119
			v-26.389v-6.285C390.987,351.376,389.457,350.911,387.572,353.714z"/>
		<path d="M518.375,339.675c-2.81-3.109-6.365-5.049-10.667-5.826c-3.17-0.6-9.535-0.895-19.095-0.895h-6.701
			c-3.378,0-6.12,2.742-6.12,6.121v25.055c0,3.379,2.742,6.119,6.12,6.119h8.402c10.459,0,17.454-0.686,20.979-2.062
			c1.732-0.672,3.28-1.535,4.646-2.588c1.664-1.279,3.524-3.715,4.773-6.053c0.502-0.943,0.924-1.861,1.163-2.688
			c0.477-1.67,0.716-3.451,0.716-5.348c0-1.758-0.257-3.354-0.631-4.885C521.307,343.983,520.156,341.638,518.375,339.675z"/>
	</g>
</g>
<g>
</g>
<g>
</g>
<g>
</g>
<g>
</g>
<g>
</g>
<g>
</g>
<g>
</g>
<g>
</g>
<g>
</g>
<g>
</g>
<g>
</g>
<g>
</g>
<g>
</g>
<g>
</g>
<g>
</g>
</svg>
